<?xml version="1.0" encoding="UTF-8"?><svg id="b" xmlns="http://www.w3.org/2000/svg" viewBox="0 0 154.69 154.7"><g id="c"><path d="m77.35,0C34.63,0,0,34.63,0,77.35s34.63,77.35,77.35,77.35,77.34-34.63,77.34-77.35S120.06,0,77.35,0Zm-34.95,81.85c2.69-3.66,6.58-5.2,10.86-5.94,1.55-.27,3.13-.39,4.08-.51,3.21.07,5.69.59,7.86,2.04,3.75,2.51,4.91,7.21,1.36,10.47-1.51,1.38-3.33,1.62-5.25,1.39-1.77-.21-3.54-.49-5.31-.72-4.89-.64-8.93.88-12,4.78-.72.91-1.41,1.86-2.02,2.84-.42.67-.92.81-1.58.54-.79-.33-2.08-.24-2.01-1.47.26-4.78,1.07-9.43,4.01-13.42Zm37.99-6.21c1.54,5.61,2.89,11.29,2.8,17.18-.02,1.91-.18,3.82-.28,5.8-.81.1-1.58.2-2.35.31-6.27.86-7.84,6.52-5.99,11.02.5,1.2,1.24,2.3,1.86,3.45-.93.29-1.88.53-2.8.86-2.28.84-3.38.35-3.7-2.04-.45-3.25-.67-6.53-.99-9.8-.04-.42-.1-.83-.16-1.24-.28-2.01-.3-1.94-2.28-2.37-1.01-.22-1.47.11-1.79,1-.44,1.21-.92,2.4-1.4,3.59-.34.84-.76,1.03-1.6.43-4.69-3.38-10.62-2.26-13.83,2.56-.37.55-.66,1.19-1.14,1.62-.4.36-1.02.47-1.55.69-.19-.49-.54-.98-.55-1.48-.04-2.02.05-4.04.05-6.06,0-.36-.11-.8-.32-1.07-1.21-1.48-.56-2.8.3-4.09,2.56-3.84,5.92-6.08,10.79-5.48,2.27.28,4.57.34,6.85.44,4.46.2,8.65-2.99,8.07-9.14-.24-2.48-2.22-4.03-4.14-5.39-1.11-.78-2.42-1.29-3.57-2.02-.34-.22-.72-.9-.62-1.21.74-2.1,1.6-4.16,2.45-6.32.56.43,1.25.95,1.93,1.48.69.53,1.35,1.11,2.07,1.6,2.06,1.4,3.63,1.01,4.8-1.16,1.17-2.16,2.38-4.3,3.45-6.5.76-1.56,1.32-3.22,1.96-4.84.23-.57.46-1.13.69-1.7.11,0,.22-.02.34-.02.16.55.47,1.11.45,1.65-.08,2.87-.22,5.73-.39,8.59-.19,3.25-.29,6.44.59,9.66Zm8.56,4.09c.51-1.22,1.15-2.39,1.8-3.54.35-.63.85-1.17,1.29-1.75.15.11.29.23.44.35-.02.35.03.73-.07,1.06-.82,2.78-.46,5.51.28,8.24,1.06,3.93,1.47,7.92,1.06,11.98-.17,1.69-.64,2.45-2.31,2.57-2.54.17-5.11.04-7.87.04.27-.37.38-.59.56-.74,3.29-2.78,4.01-6.55,4.01-10.58,0-2.57-.21-5.18.81-7.63Zm-1.32,20.49c1.74.01,3.49-.03,5.23-.09.98-.03,1.56-.57,1.88-1.52,1.12-3.35,1.21-6.79.82-10.25-.24-2.05-.72-4.08-1.14-6.11-.3-1.45.05-2.2,1.47-2.91.99-.5,2.39-.29,3.09.55.48.57.91,1.21,1.23,1.87,2.35,4.81,3.92,9.81,3.81,15.18.1,4.93-1.07,9.44-3.93,13.46-2.14,3-5.25,4.47-8.69,5.18-3.8.78-7.57.39-11.11-1.28-4.2-1.97-5.97-6.29-4.34-10.26.94-2.32,2.74-3.63,5.1-3.86,2.17-.22,4.39.04,6.58.04Zm-11.17,13.2c1.75,1.05,3.39,2.54,5.28,3.05,3.1.84,6.37,1.05,9.58,1.48.72.1,1.46.02,2.46.02-1.86,4.28-4.93,7.02-8.18,9.62-3.7,2.97-7.91,4.08-12.66,3.73.07-.27.09-.53.2-.72,3.06-5.35,4.06-11.1,3.32-17.18Zm-29.22,19.28c-1.36-.79-2.76-1.51-4.07-2.37-4.29-2.83-8.06-6.13-10.34-10.91-1.5-3.14-2.18-6.45-2.37-9.87-.09-1.71-.08-3.42,0-5.12.11-2.28,1.1-4.19,2.81-5.66,2.17-1.87,5.42-1.95,7.91-.31,2.14,1.4,3.19,4.43,2.3,7.1-1.12,3.37-1.99,6.75-2.03,10.35-.07,5.29,1.65,9.94,4.75,14.16.53.72.99,1.5,1.48,2.25-.15.13-.29.25-.44.38Zm70.06-53.04c-.7,1.64-1.46,3.26-2.25,4.87-1.49,3.05-2.32,6.26-2.1,9.65.74,11.41-3.36,21.1-10.44,29.75-2.6,3.19-5.18,6.39-8.47,8.97-10.75,8.43-23.9,10.4-36.52,4.11-4.73-2.35-7.23-6.48-9.02-11.18-2.05-5.37-2.1-10.8-.34-16.26,1.28-4.01,5.24-6.4,9.5-5.68,3.67.63,6.38,4.13,6.13,8.25-.17,2.94-.73,5.86-.92,8.81-.15,2.18-.24,4.43.07,6.58.52,3.66,2.84,5.77,6.55,6.08,5.44.46,10.53-.77,15.33-3.42,5.44-3,9.19-7.61,12.58-12.6,1.75-2.59,3.33-5.29,5.1-7.85,2.46-3.58,3.3-7.58,3.37-13.36-.33-1.91-.77-5.33-1.52-8.69-1-4.47.51-8.08,4.52-10.29,1.93-1.06,3.79-2.24,5.68-3.37,1.53-.91,2.18-.67,2.82,1,.59,1.56.58,3.11-.07,4.63Zm4.79-19.57c-.99,4.21-3.61,7.38-6.68,10.17-3.92,3.57-8.2,6.62-13.6,7.46-2.45.39-4.97.4-7.46.5-1.07.04-.97-.79-.86-1.52.19-1.34.38-2.67.57-4.01-.13-.1-.26-.2-.39-.3-.72.32-1.5.56-2.14.99-3.64,2.43-5,6.08-5.31,10.24-.09,1.37.02,2.75-.07,4.12-.05.67-.35,1.32-.53,1.97-.16-.02-.32-.04-.49-.06-.13-.54-.36-1.08-.4-1.63-.27-4.35-1.22-8.59-2.65-12.66-1.17-3.33-1.12-6.57-.79-9.95.38-3.85.83-7.72-.09-11.56-.18-.75-.42-1.47-.74-2.59-.65.91-1.17,1.45-1.48,2.09-1.22,2.55-2.31,5.16-3.58,7.69-1.01,2.04-2.09,4.06-3.35,5.96-.97,1.46-1.4,1.48-2.88.56-1.91-1.18-3.74-2.47-5.85-3.88-.31.77-.59,1.4-.82,2.04-.58,1.64-1.07,3.32-1.71,4.93-.5,1.23-1.55,1.93-2.84,2.23-.28.07-.57.14-.85.21-2.47.61-4.64.31-6.46-1.74-3.29-3.71-6.31-7.6-7.05-12.67-.53-3.61.06-7.23.79-10.79,1.58-7.74,3.2-15.47,4.83-23.2.2-.97.52-1.93.92-2.84,1.24-2.8,4.09-3.31,6.11-.99,1.46,1.69,2.69,3.59,3.97,5.43.65.92,1.19,1.91,1.76,2.88.77,1.31,1.85,1.9,3.42,1.75,3.86-.34,7.72-.7,11.58-.87,4.88-.22,9.74.06,14.56.91,2.41.42,3.4-.28,4.23-2.54,1.39-3.78,2.81-7.56,4.44-11.24,1.64-3.7,3.67-4.01,6.75-1.33,2.7,2.35,4.39,5.42,6.13,8.45,4.98,8.64,7.51,18.07,8.91,27.86.38,2.65.73,5.27.1,7.93Z" fill="currentColor"/></g></svg>